<svg width="47" height="14" viewBox="0 0 47 14" fill="none" xmlns="http://www.w3.org/2000/svg">
<path d="M7.70813 14C12.463 14 15.4163 11.3052 15.4163 7.00469V6.98592C15.4163 2.69484 12.4516 0 7.70813 0C2.97607 0 0 2.68545 0 6.98592V7.00469C0 11.3146 2.96467 14 7.70813 14ZM7.70813 12.1408C4.58383 12.1408 2.59978 10.1596 2.59978 7.00469V6.98592C2.59978 3.83099 4.59523 1.85916 7.70813 1.85916C10.8324 1.85916 12.8051 3.84038 12.8051 6.98592V7.00469C12.8051 10.1315 10.8666 12.1408 7.70813 12.1408Z" fill="#121C45"/>
<path d="M24.1671 14C28.0667 14 30.4385 12.4319 30.4385 9.96244V9.95305C30.4385 7.85916 28.9789 6.723 25.581 6.13146L23.7794 5.8216C21.7269 5.4554 20.7919 4.83568 20.7919 3.8216V3.81221C20.7919 2.62911 22.0918 1.83099 24.1328 1.8216C26.0827 1.8216 27.4054 2.58216 27.6334 3.84038L27.6448 3.97183H30.1306L30.1192 3.81221C29.9481 1.53991 27.5992 0 24.1671 0C20.6893 0 18.2149 1.58685 18.2035 3.89671V3.9061C18.2035 5.91549 19.7657 7.13615 22.9926 7.69953L24.7828 8.00939C26.9607 8.40376 27.8615 8.99531 27.8615 10.0845V10.0939C27.8615 11.3615 26.4704 12.1784 24.2697 12.1784C22.069 12.1784 20.5524 11.3991 20.3244 10.1502L20.3016 10.0282H17.8158L17.8272 10.169C18.0325 12.554 20.4726 14 24.1671 14Z" fill="#121C45"/>
<path d="M33.4424 13.7746H35.9965V7.77465H44.4458V13.7746H47V0.225352H44.4458V5.95305H35.9965V0.225352H33.4424V13.7746Z" fill="#121C45"/>
</svg>
